<svg width="339" height="309" viewBox="0 0 339 309" fill="none" xmlns="http://www.w3.org/2000/svg">
<path d="M156.693 23.3068C155.864 23.3068 155.111 23.1506 154.435 22.8381C153.759 22.5199 153.222 22.0625 152.824 21.4659C152.426 20.8636 152.227 20.1364 152.227 19.2841C152.227 18.5341 152.375 17.9261 152.67 17.4602C152.966 16.9886 153.361 16.6193 153.855 16.3523C154.349 16.0852 154.895 15.8864 155.491 15.7557C156.094 15.6193 156.699 15.5114 157.307 15.4318C158.102 15.3295 158.747 15.2528 159.241 15.2017C159.741 15.1449 160.105 15.0511 160.332 14.9205C160.565 14.7898 160.682 14.5625 160.682 14.2386V14.1705C160.682 13.3295 160.452 12.6761 159.991 12.2102C159.537 11.7443 158.847 11.5114 157.92 11.5114C156.96 11.5114 156.207 11.7216 155.662 12.142C155.116 12.5625 154.733 13.0114 154.511 13.4886L152.602 12.8068C152.943 12.0114 153.398 11.392 153.966 10.9489C154.54 10.5 155.165 10.1875 155.841 10.0114C156.523 9.82955 157.193 9.73864 157.852 9.73864C158.273 9.73864 158.756 9.78977 159.301 9.89204C159.852 9.98864 160.384 10.1903 160.895 10.4972C161.412 10.804 161.841 11.267 162.182 11.8864C162.523 12.5057 162.693 13.3352 162.693 14.375V23H160.682V21.2273H160.58C160.443 21.5114 160.216 21.8153 159.898 22.1392C159.58 22.4631 159.156 22.7386 158.628 22.9659C158.099 23.1932 157.455 23.3068 156.693 23.3068ZM157 21.5C157.795 21.5 158.466 21.3438 159.011 21.0312C159.563 20.7188 159.977 20.3153 160.256 19.821C160.54 19.3267 160.682 18.8068 160.682 18.2614V16.4205C160.597 16.5227 160.409 16.6165 160.119 16.7017C159.835 16.7812 159.506 16.8523 159.131 16.9148C158.761 16.9716 158.401 17.0227 158.048 17.0682C157.702 17.108 157.42 17.142 157.205 17.1705C156.682 17.2386 156.193 17.3494 155.739 17.5028C155.29 17.6506 154.926 17.875 154.648 18.1761C154.375 18.4716 154.239 18.875 154.239 19.3864C154.239 20.0852 154.497 20.6136 155.014 20.9716C155.537 21.3239 156.199 21.5 157 21.5ZM166.134 5.54545L171.316 20.2386H171.521L176.702 5.54545H178.918L172.509 23H170.327L163.918 5.54545H166.134ZM181.637 23V5.54545H192.103V7.42045H183.751V13.3182H191.319V15.1932H183.751V23H181.637Z" fill="black"/>
<path d="M301.693 95.3068C300.864 95.3068 300.111 95.1506 299.435 94.8381C298.759 94.5199 298.222 94.0625 297.824 93.4659C297.426 92.8636 297.227 92.1364 297.227 91.2841C297.227 90.5341 297.375 89.9261 297.67 89.4602C297.966 88.9886 298.361 88.6193 298.855 88.3523C299.349 88.0852 299.895 87.8864 300.491 87.7557C301.094 87.6193 301.699 87.5114 302.307 87.4318C303.102 87.3295 303.747 87.2528 304.241 87.2017C304.741 87.1449 305.105 87.0511 305.332 86.9205C305.565 86.7898 305.682 86.5625 305.682 86.2386V86.1705C305.682 85.3295 305.452 84.6761 304.991 84.2102C304.537 83.7443 303.847 83.5114 302.92 83.5114C301.96 83.5114 301.207 83.7216 300.662 84.142C300.116 84.5625 299.733 85.0114 299.511 85.4886L297.602 84.8068C297.943 84.0114 298.398 83.392 298.966 82.9489C299.54 82.5 300.165 82.1875 300.841 82.0114C301.523 81.8295 302.193 81.7386 302.852 81.7386C303.273 81.7386 303.756 81.7898 304.301 81.892C304.852 81.9886 305.384 82.1903 305.895 82.4972C306.412 82.804 306.841 83.267 307.182 83.8864C307.523 84.5057 307.693 85.3352 307.693 86.375V95H305.682V93.2273H305.58C305.443 93.5114 305.216 93.8153 304.898 94.1392C304.58 94.4631 304.156 94.7386 303.628 94.9659C303.099 95.1932 302.455 95.3068 301.693 95.3068ZM302 93.5C302.795 93.5 303.466 93.3438 304.011 93.0312C304.563 92.7188 304.977 92.3153 305.256 91.821C305.54 91.3267 305.682 90.8068 305.682 90.2614V88.4205C305.597 88.5227 305.409 88.6165 305.119 88.7017C304.835 88.7812 304.506 88.8523 304.131 88.9148C303.761 88.9716 303.401 89.0227 303.048 89.0682C302.702 89.108 302.42 89.142 302.205 89.1705C301.682 89.2386 301.193 89.3494 300.739 89.5028C300.29 89.6506 299.926 89.875 299.648 90.1761C299.375 90.4716 299.239 90.875 299.239 91.3864C299.239 92.0852 299.497 92.6136 300.014 92.9716C300.537 93.3239 301.199 93.5 302 93.5ZM311.134 77.5455L316.316 92.2386H316.521L321.702 77.5455H323.918L317.509 95H315.327L308.918 77.5455H311.134ZM326.637 95V77.5455H328.751V93.125H336.864V95H326.637Z" fill="black"/>
<path d="M5.69318 95.3068C4.86364 95.3068 4.1108 95.1506 3.43466 94.8381C2.75852 94.5199 2.22159 94.0625 1.82386 93.4659C1.42614 92.8636 1.22727 92.1364 1.22727 91.2841C1.22727 90.5341 1.375 89.9261 1.67045 89.4602C1.96591 88.9886 2.3608 88.6193 2.85511 88.3523C3.34943 88.0852 3.89489 87.8864 4.49148 87.7557C5.09375 87.6193 5.69886 87.5114 6.30682 87.4318C7.10227 87.3295 7.74716 87.2528 8.24148 87.2017C8.74148 87.1449 9.10511 87.0511 9.33239 86.9205C9.56534 86.7898 9.68182 86.5625 9.68182 86.2386V86.1705C9.68182 85.3295 9.4517 84.6761 8.99148 84.2102C8.53693 83.7443 7.84659 83.5114 6.92045 83.5114C5.96023 83.5114 5.20739 83.7216 4.66193 84.142C4.11648 84.5625 3.73295 85.0114 3.51136 85.4886L1.60227 84.8068C1.94318 84.0114 2.39773 83.392 2.96591 82.9489C3.53977 82.5 4.16477 82.1875 4.84091 82.0114C5.52273 81.8295 6.19318 81.7386 6.85227 81.7386C7.27273 81.7386 7.75568 81.7898 8.30114 81.892C8.85227 81.9886 9.38352 82.1903 9.89489 82.4972C10.4119 82.804 10.8409 83.267 11.1818 83.8864C11.5227 84.5057 11.6932 85.3352 11.6932 86.375V95H9.68182V93.2273H9.57955C9.44318 93.5114 9.21591 93.8153 8.89773 94.1392C8.57955 94.4631 8.15625 94.7386 7.62784 94.9659C7.09943 95.1932 6.45455 95.3068 5.69318 95.3068ZM6 93.5C6.79545 93.5 7.46591 93.3438 8.01136 93.0312C8.5625 92.7188 8.97727 92.3153 9.25568 91.821C9.53977 91.3267 9.68182 90.8068 9.68182 90.2614V88.4205C9.59659 88.5227 9.40909 88.6165 9.11932 88.7017C8.83523 88.7812 8.50568 88.8523 8.13068 88.9148C7.76136 88.9716 7.40057 89.0227 7.0483 89.0682C6.7017 89.108 6.42045 89.142 6.20455 89.1705C5.68182 89.2386 5.19318 89.3494 4.73864 89.5028C4.28977 89.6506 3.92614 89.875 3.64773 90.1761C3.375 90.4716 3.23864 90.875 3.23864 91.3864C3.23864 92.0852 3.49716 92.6136 4.0142 92.9716C4.53693 93.3239 5.19886 93.5 6 93.5ZM15.1342 77.5455L20.3161 92.2386H20.5206L25.7024 77.5455H27.9183L21.5092 95H19.3274L12.9183 77.5455H15.1342ZM30.6371 95V77.5455H36.5348C37.8984 77.5455 39.0178 77.7784 39.8928 78.2443C40.7678 78.7045 41.4155 79.3381 41.8359 80.1449C42.2564 80.9517 42.4666 81.8693 42.4666 82.8977C42.4666 83.9261 42.2564 84.8381 41.8359 85.6335C41.4155 86.429 40.7706 87.054 39.9013 87.5085C39.032 87.9574 37.9212 88.1818 36.5689 88.1818H31.7962V86.2727H36.5007C37.4325 86.2727 38.1825 86.1364 38.7507 85.8636C39.3246 85.5909 39.7393 85.2045 39.995 84.7045C40.2564 84.1989 40.3871 83.5966 40.3871 82.8977C40.3871 82.1989 40.2564 81.5881 39.995 81.0653C39.7337 80.5426 39.3161 80.1392 38.7422 79.8551C38.1683 79.5653 37.4098 79.4205 36.4666 79.4205H32.7507V95H30.6371ZM38.853 87.1591L43.1484 95H40.6939L36.4666 87.1591H38.853Z" fill="black"/>
<path d="M313.48 171.072L313.72 170.568C313.784 170.584 313.848 170.6 313.912 170.616C313.992 170.616 314.072 170.616 314.152 170.616C315.432 170.616 316.168 170.232 316.36 169.464C316.552 168.664 316.648 166.904 316.648 164.184C316.648 158.936 316.472 156.128 316.12 155.76C315.816 155.504 315.416 155.376 314.92 155.376C314.808 155.376 314.68 155.384 314.536 155.4C314.392 155.416 314.248 155.44 314.104 155.472L314.32 154.944C314.848 155.008 315.92 155.08 317.536 155.16C318.176 155.128 318.776 155.096 319.336 155.064C319.912 155.016 320.456 154.968 320.968 154.92L320.632 155.4C320.568 155.4 320.496 155.4 320.416 155.4C320.352 155.384 320.288 155.376 320.224 155.376C319.6 155.376 319.12 155.576 318.784 155.976C318.512 156.568 318.376 158.432 318.376 161.568C318.376 161.968 318.376 162.392 318.376 162.84C318.376 163.272 318.384 163.728 318.4 164.208C318.432 165.616 318.464 166.76 318.496 167.64C318.544 168.504 318.6 169.112 318.664 169.464C318.728 169.896 319.096 170.208 319.768 170.4C320.136 170.496 320.504 170.544 320.872 170.544C320.952 170.544 321.032 170.544 321.112 170.544C321.192 170.544 321.272 170.536 321.352 170.52L321.088 171.072C320.656 170.944 319.424 170.848 317.392 170.784L313.48 171.072Z" fill="black"/>
<path d="M241.48 302.072L241.72 301.568C241.784 301.584 241.848 301.6 241.912 301.616C241.992 301.616 242.072 301.616 242.152 301.616C243.432 301.616 244.168 301.232 244.36 300.464C244.552 299.664 244.648 297.904 244.648 295.184C244.648 289.936 244.472 287.128 244.12 286.76C243.816 286.504 243.416 286.376 242.92 286.376C242.808 286.376 242.68 286.384 242.536 286.4C242.392 286.416 242.248 286.44 242.104 286.472L242.32 285.944C242.848 286.008 243.92 286.08 245.536 286.16C246.176 286.128 246.776 286.096 247.336 286.064C247.912 286.016 248.456 285.968 248.968 285.92L248.632 286.4C248.568 286.4 248.496 286.4 248.416 286.4C248.352 286.384 248.288 286.376 248.224 286.376C247.6 286.376 247.12 286.576 246.784 286.976C246.512 287.568 246.376 289.432 246.376 292.568C246.376 292.968 246.376 293.392 246.376 293.84C246.376 294.272 246.384 294.728 246.4 295.208C246.432 296.616 246.464 297.76 246.496 298.64C246.544 299.504 246.6 300.112 246.664 300.464C246.728 300.896 247.096 301.208 247.768 301.4C248.136 301.496 248.504 301.544 248.872 301.544C248.952 301.544 249.032 301.544 249.112 301.544C249.192 301.544 249.272 301.536 249.352 301.52L249.088 302.072C248.656 301.944 247.424 301.848 245.392 301.784L241.48 302.072ZM250.316 302.072L250.556 301.568C250.62 301.584 250.684 301.6 250.748 301.616C250.828 301.616 250.908 301.616 250.988 301.616C252.268 301.616 253.004 301.232 253.196 300.464C253.388 299.664 253.484 297.904 253.484 295.184C253.484 289.936 253.308 287.128 252.956 286.76C252.652 286.504 252.252 286.376 251.756 286.376C251.644 286.376 251.516 286.384 251.372 286.4C251.228 286.416 251.084 286.44 250.94 286.472L251.156 285.944C251.684 286.008 252.756 286.08 254.372 286.16C255.012 286.128 255.612 286.096 256.172 286.064C256.748 286.016 257.292 285.968 257.804 285.92L257.468 286.4C257.404 286.4 257.332 286.4 257.252 286.4C257.188 286.384 257.124 286.376 257.06 286.376C256.436 286.376 255.956 286.576 255.62 286.976C255.348 287.568 255.212 289.432 255.212 292.568C255.212 292.968 255.212 293.392 255.212 293.84C255.212 294.272 255.22 294.728 255.236 295.208C255.268 296.616 255.3 297.76 255.332 298.64C255.38 299.504 255.436 300.112 255.5 300.464C255.564 300.896 255.932 301.208 256.604 301.4C256.972 301.496 257.34 301.544 257.708 301.544C257.788 301.544 257.868 301.544 257.948 301.544C258.028 301.544 258.108 301.536 258.188 301.52L257.924 302.072C257.492 301.944 256.26 301.848 254.228 301.784L250.316 302.072Z" fill="black"/>
<path d="M76.48 302.072L76.72 301.568C76.784 301.584 76.848 301.6 76.912 301.616C76.992 301.616 77.072 301.616 77.152 301.616C78.432 301.616 79.168 301.232 79.36 300.464C79.552 299.664 79.648 297.904 79.648 295.184C79.648 289.936 79.472 287.128 79.12 286.76C78.816 286.504 78.416 286.376 77.92 286.376C77.808 286.376 77.68 286.384 77.536 286.4C77.392 286.416 77.248 286.44 77.104 286.472L77.32 285.944C77.848 286.008 78.92 286.08 80.536 286.16C81.176 286.128 81.776 286.096 82.336 286.064C82.912 286.016 83.456 285.968 83.968 285.92L83.632 286.4C83.568 286.4 83.496 286.4 83.416 286.4C83.352 286.384 83.288 286.376 83.224 286.376C82.6 286.376 82.12 286.576 81.784 286.976C81.512 287.568 81.376 289.432 81.376 292.568C81.376 292.968 81.376 293.392 81.376 293.84C81.376 294.272 81.384 294.728 81.4 295.208C81.432 296.616 81.464 297.76 81.496 298.64C81.544 299.504 81.6 300.112 81.664 300.464C81.728 300.896 82.096 301.208 82.768 301.4C83.136 301.496 83.504 301.544 83.872 301.544C83.952 301.544 84.032 301.544 84.112 301.544C84.192 301.544 84.272 301.536 84.352 301.52L84.088 302.072C83.656 301.944 82.424 301.848 80.392 301.784L76.48 302.072ZM85.3159 302.072L85.5559 301.568C85.6199 301.584 85.6839 301.6 85.7479 301.616C85.8279 301.616 85.9079 301.616 85.9879 301.616C87.2679 301.616 88.0039 301.232 88.1959 300.464C88.3879 299.664 88.4839 297.904 88.4839 295.184C88.4839 289.936 88.3079 287.128 87.9559 286.76C87.6519 286.504 87.2519 286.376 86.7559 286.376C86.6439 286.376 86.5159 286.384 86.3719 286.4C86.2279 286.416 86.0839 286.44 85.9399 286.472L86.1559 285.944C86.6839 286.008 87.7559 286.08 89.3719 286.16C90.0119 286.128 90.6119 286.096 91.1719 286.064C91.7479 286.016 92.2919 285.968 92.8039 285.92L92.4679 286.4C92.4039 286.4 92.3319 286.4 92.2519 286.4C92.1879 286.384 92.1239 286.376 92.0599 286.376C91.4359 286.376 90.9559 286.576 90.6199 286.976C90.3479 287.568 90.2119 289.432 90.2119 292.568C90.2119 292.968 90.2119 293.392 90.2119 293.84C90.2119 294.272 90.2199 294.728 90.2359 295.208C90.2679 296.616 90.2999 297.76 90.3319 298.64C90.3799 299.504 90.4359 300.112 90.4999 300.464C90.5639 300.896 90.9319 301.208 91.6039 301.4C91.9719 301.496 92.3399 301.544 92.7079 301.544C92.7879 301.544 92.8679 301.544 92.9479 301.544C93.0279 301.544 93.1079 301.536 93.1879 301.52L92.9239 302.072C92.4919 301.944 91.2599 301.848 89.2279 301.784L85.3159 302.072ZM94.1519 302.072L94.3919 301.568C94.4559 301.584 94.5199 301.6 94.5839 301.616C94.6639 301.616 94.7439 301.616 94.8239 301.616C96.1039 301.616 96.8399 301.232 97.0319 300.464C97.2239 299.664 97.3199 297.904 97.3199 295.184C97.3199 289.936 97.1439 287.128 96.7919 286.76C96.4879 286.504 96.0879 286.376 95.5919 286.376C95.4799 286.376 95.3519 286.384 95.2079 286.4C95.0639 286.416 94.9199 286.44 94.7759 286.472L94.9919 285.944C95.5199 286.008 96.5919 286.08 98.2079 286.16C98.8479 286.128 99.4479 286.096 100.008 286.064C100.584 286.016 101.128 285.968 101.64 285.92L101.304 286.4C101.24 286.4 101.168 286.4 101.088 286.4C101.024 286.384 100.96 286.376 100.896 286.376C100.272 286.376 99.7919 286.576 99.4559 286.976C99.1839 287.568 99.0479 289.432 99.0479 292.568C99.0479 292.968 99.0479 293.392 99.0479 293.84C99.0479 294.272 99.0559 294.728 99.0719 295.208C99.1039 296.616 99.1359 297.76 99.1679 298.64C99.2159 299.504 99.2719 300.112 99.3359 300.464C99.3999 300.896 99.7679 301.208 100.44 301.4C100.808 301.496 101.176 301.544 101.544 301.544C101.624 301.544 101.704 301.544 101.784 301.544C101.864 301.544 101.944 301.536 102.024 301.52L101.76 302.072C101.328 301.944 100.096 301.848 98.0639 301.784L94.1519 302.072Z" fill="black"/>
<path d="M171.5 39.5V295M236.5 277L105.5 57.5M236.5 57.5L105.5 277M280.5 102.5L61 232M299 167H44M280.5 232L61 102.5" stroke="black"/>
</svg>
